<svg xmlns="http://www.w3.org/2000/svg" xmlns:svgjs="http://svgjs.com/svgjs" xmlns:xlink="http://www.w3.org/1999/xlink" id="SvgjsSvg1126" width="680" height="400" version="1.1"><defs id="SvgjsDefs1127"><marker id="SvgjsMarker1196" stroke-dasharray="0 0" markerHeight="10" markerUnits="userSpaceOnUse" markerWidth="14" orient="auto" refX="10" refY="5" viewBox="0 0 14 10"><path id="SvgjsPath1197" fill="#323232" stroke="#323232" stroke-width="1" d="M0,0 L14,5 L0,10 L0,0"/></marker><marker id="SvgjsMarker1200" stroke-dasharray="0 0" markerHeight="10" markerUnits="userSpaceOnUse" markerWidth="14" orient="auto" refX="10" refY="5" viewBox="0 0 14 10"><path id="SvgjsPath1201" fill="#323232" stroke="#323232" stroke-width="1" d="M0,0 L14,5 L0,10 L0,0"/></marker><marker id="SvgjsMarker1204" stroke-dasharray="0 0" markerHeight="10" markerUnits="userSpaceOnUse" markerWidth="14" orient="auto" refX="10" refY="5" viewBox="0 0 14 10"><path id="SvgjsPath1205" fill="#323232" stroke="#323232" stroke-width="1" d="M0,0 L14,5 L0,10 L0,0"/></marker><marker id="SvgjsMarker1208" stroke-dasharray="0 0" markerHeight="10" markerUnits="userSpaceOnUse" markerWidth="14" orient="auto" refX="10" refY="5" viewBox="0 0 14 10"><path id="SvgjsPath1209" fill="#323232" stroke="#323232" stroke-width="1" d="M0,0 L14,5 L0,10 L0,0"/></marker><marker id="SvgjsMarker1212" stroke-dasharray="0 0" markerHeight="10" markerUnits="userSpaceOnUse" markerWidth="14" orient="auto" refX="10" refY="5" viewBox="0 0 14 10"><path id="SvgjsPath1213" fill="#323232" stroke="#323232" stroke-width="1" d="M0,0 L14,5 L0,10 L0,0"/></marker><marker id="SvgjsMarker1216" stroke-dasharray="0 0" markerHeight="10" markerUnits="userSpaceOnUse" markerWidth="14" orient="auto" refX="10" refY="5" viewBox="0 0 14 10"><path id="SvgjsPath1217" fill="#323232" stroke="#323232" stroke-width="1" d="M0,0 L14,5 L0,10 L0,0"/></marker><marker id="SvgjsMarker1220" stroke-dasharray="0 0" markerHeight="10" markerUnits="userSpaceOnUse" markerWidth="14" orient="auto" refX="10" refY="5" viewBox="0 0 14 10"><path id="SvgjsPath1221" fill="#323232" stroke="#323232" stroke-width="1" d="M0,0 L14,5 L0,10 L0,0"/></marker><marker id="SvgjsMarker1224" stroke-dasharray="0 0" markerHeight="10" markerUnits="userSpaceOnUse" markerWidth="14" orient="auto" refX="10" refY="5" viewBox="0 0 14 10"><path id="SvgjsPath1225" fill="#323232" stroke="#323232" stroke-width="1" d="M0,0 L14,5 L0,10 L0,0"/></marker><marker id="SvgjsMarker1228" stroke-dasharray="0 0" markerHeight="10" markerUnits="userSpaceOnUse" markerWidth="14" orient="auto" refX="10" refY="5" viewBox="0 0 14 10"><path id="SvgjsPath1229" fill="#323232" stroke="#323232" stroke-width="1" d="M0,0 L14,5 L0,10 L0,0"/></marker><marker id="SvgjsMarker1232" stroke-dasharray="0 0" markerHeight="10" markerUnits="userSpaceOnUse" markerWidth="14" orient="auto" refX="10" refY="5" viewBox="0 0 14 10"><path id="SvgjsPath1233" fill="#323232" stroke="#323232" stroke-width="1" d="M0,0 L14,5 L0,10 L0,0"/></marker><marker id="SvgjsMarker1236" stroke-dasharray="0 0" markerHeight="10" markerUnits="userSpaceOnUse" markerWidth="14" orient="auto" refX="10" refY="5" viewBox="0 0 14 10"><path id="SvgjsPath1237" fill="#323232" stroke="#323232" stroke-width="1" d="M0,0 L14,5 L0,10 L0,0"/></marker><marker id="SvgjsMarker1240" stroke-dasharray="0 0" markerHeight="10" markerUnits="userSpaceOnUse" markerWidth="14" orient="auto" refX="10" refY="5" viewBox="0 0 14 10"><path id="SvgjsPath1241" fill="#323232" stroke="#323232" stroke-width="1" d="M0,0 L14,5 L0,10 L0,0"/></marker><marker id="SvgjsMarker1244" stroke-dasharray="0 0" markerHeight="10" markerUnits="userSpaceOnUse" markerWidth="14" orient="auto" refX="10" refY="5" viewBox="0 0 14 10"><path id="SvgjsPath1245" fill="#323232" stroke="#323232" stroke-width="1" d="M0,0 L14,5 L0,10 L0,0"/></marker><marker id="SvgjsMarker1248" stroke-dasharray="0 0" markerHeight="10" markerUnits="userSpaceOnUse" markerWidth="14" orient="auto" refX="10" refY="5" viewBox="0 0 14 10"><path id="SvgjsPath1249" fill="#4ccbcd" stroke="#4ccbcd" stroke-width="1" d="M0,0 L14,5 L0,10 L0,0"/></marker></defs><g id="SvgjsG1128" transform="translate(110,25)"><path id="SvgjsPath1129" fill="#fff" fill-opacity="1" stroke="rgba(33,41,48,1)" stroke-width="2" d="M 16.666666666666668 0L 83.33333333333333 0C 105.55555555555556 0 105.55555555555556 50 83.33333333333333 50L 16.666666666666668 50C -5.555555555555556 50 -5.555555555555556 0 16.666666666666668 0Z"/><g id="SvgjsG1130"><text id="SvgjsText1131" width="80" y="14.375" fill="#323232" align="middle" anchor="middle" family="微软雅黑" font-family="微软雅黑" font-size="13" font-weight="400" lineHeight="125%" opacity="1" size="13" text-anchor="middle" transform="rotate(0)" weight="400"><tspan id="SvgjsTspan1132" x="50" dy="16"><tspan id="SvgjsTspan1133">程序设计</tspan></tspan></text></g></g><g id="SvgjsG1134" transform="translate(330,25)"><path id="SvgjsPath1135" fill="#fff" fill-opacity="1" stroke="rgba(33,41,48,1)" stroke-width="2" d="M 16.666666666666668 0L 83.33333333333333 0C 105.55555555555556 0 105.55555555555556 50 83.33333333333333 50L 16.666666666666668 50C -5.555555555555556 50 -5.555555555555556 0 16.666666666666668 0Z"/><g id="SvgjsG1136"><text id="SvgjsText1137" width="80" y="14.375" fill="#323232" align="middle" anchor="middle" family="微软雅黑" font-family="微软雅黑" font-size="13" font-weight="400" lineHeight="125%" opacity="1" size="13" text-anchor="middle" transform="rotate(0)" weight="400"><tspan id="SvgjsTspan1138" x="50" dy="16"><tspan id="SvgjsTspan1139">算法语言</tspan></tspan></text></g></g><g id="SvgjsG1140" transform="translate(25,125)"><path id="SvgjsPath1141" fill="#fff" fill-opacity="1" stroke="rgba(33,41,48,1)" stroke-width="2" d="M 16.666666666666668 0L 83.33333333333333 0C 105.55555555555556 0 105.55555555555556 50 83.33333333333333 50L 16.666666666666668 50C -5.555555555555556 50 -5.555555555555556 0 16.666666666666668 0Z"/><g id="SvgjsG1142"><text id="SvgjsText1143" width="80" y="14.375" fill="#323232" align="middle" anchor="middle" family="微软雅黑" font-family="微软雅黑" font-size="13" font-weight="400" lineHeight="125%" opacity="1" size="13" text-anchor="middle" transform="rotate(0)" weight="400"><tspan id="SvgjsTspan1144" x="50" dy="16"><tspan id="SvgjsTspan1145">高等数学</tspan></tspan></text></g></g><g id="SvgjsG1146" transform="translate(230,125)"><path id="SvgjsPath1147" fill="#fff" fill-opacity="1" stroke="rgba(33,41,48,1)" stroke-width="2" d="M 16.666666666666668 0L 83.33333333333333 0C 105.55555555555556 0 105.55555555555556 50 83.33333333333333 50L 16.666666666666668 50C -5.555555555555556 50 -5.555555555555556 0 16.666666666666668 0Z"/><g id="SvgjsG1148"><text id="SvgjsText1149" width="80" y="14.375" fill="#323232" align="middle" anchor="middle" family="微软雅黑" font-family="微软雅黑" font-size="13" font-weight="400" lineHeight="125%" opacity="1" size="13" text-anchor="middle" transform="rotate(0)" weight="400"><tspan id="SvgjsTspan1150" x="50" dy="16"><tspan id="SvgjsTspan1151">离散数学</tspan></tspan></text></g></g><g id="SvgjsG1152" transform="translate(383,125)"><path id="SvgjsPath1153" fill="#fff" fill-opacity="1" stroke="rgba(33,41,48,1)" stroke-width="2" d="M 16.666666666666668 0L 83.33333333333333 0C 105.55555555555556 0 105.55555555555556 50 83.33333333333333 50L 16.666666666666668 50C -5.555555555555556 50 -5.555555555555556 0 16.666666666666668 0Z"/><g id="SvgjsG1154"><text id="SvgjsText1155" width="80" y="14.375" fill="#323232" align="middle" anchor="middle" family="微软雅黑" font-family="微软雅黑" font-size="13" font-weight="400" lineHeight="125%" opacity="1" size="13" text-anchor="middle" transform="rotate(0)" weight="400"><tspan id="SvgjsTspan1156" x="50" dy="16"><tspan id="SvgjsTspan1157">编译技术</tspan></tspan></text></g></g><g id="SvgjsG1158" transform="translate(25,225)"><path id="SvgjsPath1159" fill="#fff" fill-opacity="1" stroke="rgba(33,41,48,1)" stroke-width="2" d="M 16.666666666666668 0L 83.33333333333333 0C 105.55555555555556 0 105.55555555555556 50 83.33333333333333 50L 16.666666666666668 50C -5.555555555555556 50 -5.555555555555556 0 16.666666666666668 0Z"/><g id="SvgjsG1160"><text id="SvgjsText1161" width="80" y="14.375" fill="#323232" align="middle" anchor="middle" family="微软雅黑" font-family="微软雅黑" font-size="13" font-weight="400" lineHeight="125%" opacity="1" size="13" text-anchor="middle" transform="rotate(0)" weight="400"><tspan id="SvgjsTspan1162" x="50" dy="16"><tspan id="SvgjsTspan1163">普通物理</tspan></tspan></text></g></g><g id="SvgjsG1164" transform="translate(269,225)"><path id="SvgjsPath1165" fill="#fff" fill-opacity="1" stroke="rgba(33,41,48,1)" stroke-width="2" d="M 16.666666666666668 0L 83.33333333333333 0C 105.55555555555556 0 105.55555555555556 50 83.33333333333333 50L 16.666666666666668 50C -5.555555555555556 50 -5.555555555555556 0 16.666666666666668 0Z"/><g id="SvgjsG1166"><text id="SvgjsText1167" width="80" y="14.375" fill="#323232" align="middle" anchor="middle" family="微软雅黑" font-family="微软雅黑" font-size="13" font-weight="400" lineHeight="125%" opacity="1" size="13" text-anchor="middle" transform="rotate(0)" weight="400"><tspan id="SvgjsTspan1168" x="50" dy="16"><tspan id="SvgjsTspan1169">数据结构</tspan></tspan></text></g></g><g id="SvgjsG1170" transform="translate(555,219)"><path id="SvgjsPath1171" fill="#fff" fill-opacity="1" stroke="rgba(33,41,48,1)" stroke-width="2" d="M 16.666666666666668 0L 83.33333333333333 0C 105.55555555555556 0 105.55555555555556 50 83.33333333333333 50L 16.666666666666668 50C -5.555555555555556 50 -5.555555555555556 0 16.666666666666668 0Z"/><g id="SvgjsG1172"><text id="SvgjsText1173" width="80" y="14.375" fill="#323232" align="middle" anchor="middle" family="微软雅黑" font-family="微软雅黑" font-size="13" font-weight="400" lineHeight="125%" opacity="1" size="13" text-anchor="middle" transform="rotate(0)" weight="400"><tspan id="SvgjsTspan1174" x="50" dy="16"><tspan id="SvgjsTspan1175">数据库系统</tspan></tspan></text></g></g><g id="SvgjsG1176" transform="translate(25,325)"><path id="SvgjsPath1177" fill="#fff" fill-opacity="1" stroke="rgba(33,41,48,1)" stroke-width="2" d="M 16.666666666666668 0L 83.33333333333333 0C 105.55555555555556 0 105.55555555555556 50 83.33333333333333 50L 16.666666666666668 50C -5.555555555555556 50 -5.555555555555556 0 16.666666666666668 0Z"/><g id="SvgjsG1178"><text id="SvgjsText1179" width="80" y="14.375" fill="#323232" align="middle" anchor="middle" family="微软雅黑" font-family="微软雅黑" font-size="13" font-weight="400" lineHeight="125%" opacity="1" size="13" text-anchor="middle" transform="rotate(0)" weight="400"><tspan id="SvgjsTspan1180" x="50" dy="16"><tspan id="SvgjsTspan1181">组成原理</tspan></tspan></text></g></g><g id="SvgjsG1182" transform="translate(269,325)"><path id="SvgjsPath1183" fill="#fff" fill-opacity="1" stroke="rgba(33,41,48,1)" stroke-width="2" d="M 16.666666666666668 0L 83.33333333333333 0C 105.55555555555556 0 105.55555555555556 50 83.33333333333333 50L 16.666666666666668 50C -5.555555555555556 50 -5.555555555555556 0 16.666666666666668 0Z"/><g id="SvgjsG1184"><text id="SvgjsText1185" width="80" y="14.375" fill="#323232" align="middle" anchor="middle" family="微软雅黑" font-family="微软雅黑" font-size="13" font-weight="400" lineHeight="125%" opacity="1" size="13" text-anchor="middle" transform="rotate(0)" weight="400"><tspan id="SvgjsTspan1186" x="50" dy="16"><tspan id="SvgjsTspan1187">操作系统</tspan></tspan></text></g></g><g id="SvgjsG1188" transform="translate(555,325)"><path id="SvgjsPath1189" fill="#fff" fill-opacity="1" stroke="rgba(33,41,48,1)" stroke-width="2" d="M 16.666666666666668 0L 83.33333333333333 0C 105.55555555555556 0 105.55555555555556 50 83.33333333333333 50L 16.666666666666668 50C -5.555555555555556 50 -5.555555555555556 0 16.666666666666668 0Z"/><g id="SvgjsG1190"><text id="SvgjsText1191" width="80" y="14.375" fill="#323232" align="middle" anchor="middle" family="微软雅黑" font-family="微软雅黑" font-size="13" font-weight="400" lineHeight="125%" opacity="1" size="13" text-anchor="middle" transform="rotate(0)" weight="400"><tspan id="SvgjsTspan1192" x="50" dy="16"><tspan id="SvgjsTspan1193">软件工程</tspan></tspan></text></g></g><g id="SvgjsG1194"><path id="SvgjsPath1195" fill="none" stroke="#323232" stroke-width="2" marker-end="url(#SvgjsMarker1196)" d="M160 76L160 100L280 100L280 121.4"/></g><g id="SvgjsG1198"><path id="SvgjsPath1199" fill="none" stroke="#323232" stroke-width="2" marker-end="url(#SvgjsMarker1200)" d="M211 50L270 50L270 50L326.4 50"/></g><g id="SvgjsG1202"><path id="SvgjsPath1203" fill="none" stroke="#323232" stroke-width="2" marker-end="url(#SvgjsMarker1204)" d="M380 76L380 100L433 100L433 121.4"/></g><g id="SvgjsG1206"><path id="SvgjsPath1207" fill="none" stroke="#323232" stroke-width="2" marker-end="url(#SvgjsMarker1208)" d="M75 176L75 200L75 200L75 221.39999999999998"/></g><g id="SvgjsG1210"><path id="SvgjsPath1211" fill="none" stroke="#323232" stroke-width="2" marker-end="url(#SvgjsMarker1212)" d="M126 150L177.5 150L177.5 150L226.39999999999998 150"/></g><g id="SvgjsG1214"><path id="SvgjsPath1215" fill="none" stroke="#323232" stroke-width="2" marker-end="url(#SvgjsMarker1216)" d="M280 176L280 200L319 200L319 221.39999999999998"/></g><g id="SvgjsG1218"><path id="SvgjsPath1219" fill="none" stroke="#323232" stroke-width="2" marker-end="url(#SvgjsMarker1220)" d="M370 250L433 250L433 178.6"/></g><g id="SvgjsG1222"><path id="SvgjsPath1223" fill="none" stroke="#323232" stroke-width="2" marker-end="url(#SvgjsMarker1224)" d="M484 150L605 150L605 215.4"/></g><g id="SvgjsG1226"><path id="SvgjsPath1227" fill="none" stroke="#323232" stroke-width="2" marker-end="url(#SvgjsMarker1228)" d="M605 270L605 297L605 297L605 321.4"/></g><g id="SvgjsG1230"><path id="SvgjsPath1231" fill="none" stroke="#323232" stroke-width="2" marker-end="url(#SvgjsMarker1232)" d="M370 351L519 351L519 246L537 246L537 244L551.4 244"/></g><g id="SvgjsG1234"><path id="SvgjsPath1235" fill="none" stroke="#323232" stroke-width="2" marker-end="url(#SvgjsMarker1236)" d="M319 276L319 300L319 300L319 321.4"/></g><g id="SvgjsG1238"><path id="SvgjsPath1239" fill="none" stroke="#323232" stroke-width="2" marker-end="url(#SvgjsMarker1240)" d="M126 350L197 350L197 350L265.4 350"/></g><g id="SvgjsG1242"><path id="SvgjsPath1243" fill="none" stroke="#323232" stroke-width="2" marker-end="url(#SvgjsMarker1244)" d="M75 276L75 300L75 300L75 321.4"/></g><g id="SvgjsG1246"><path id="SvgjsPath1247" fill="none" stroke="#4ccbcd" stroke-width="2" marker-end="url(#SvgjsMarker1248)" d="M272.5315389351832 334.1130913087035L239 334.1130913087035L239 250L265.4 250"/></g></svg>