<svg xmlns="http://www.w3.org/2000/svg" xmlns:xlink="http://www.w3.org/1999/xlink" width="255" height="150" version="1.1" viewBox="0 0 255 150"><defs><marker id="arrowhead" markerHeight="7.2" markerUnits="strokeWidth" markerWidth="9.6" orient="auto" refX="24" refY="12" viewBox="0 0 24 24"><path d="M 0 0 L 24 12 L 0 24 z"/></marker><g id="BallT"><ellipse cx="0" cy="0" fill="#fff" stroke="#000" rx="12" ry="12"/><text x="-1" y="7" font-size="18" font-style="normal" font-weight="normal" text-anchor="middle">T</text></g><g id="BallX"><ellipse cx="0" cy="0" fill="#fff" stroke="#000" rx="12" ry="12"/><text x="0" y="7" font-size="18" font-style="normal" font-weight="normal" text-anchor="middle">X</text></g><g id="BallR"><ellipse cx="0" cy="0" fill="#fff" stroke="#000" rx="12" ry="12"/><text x="-1" y="7" font-size="18" font-style="normal" font-weight="normal" text-anchor="middle">R</text></g><g id="BallA"><ellipse cx="0" cy="0" fill="#fff" stroke="#000" rx="12" ry="12"/><text x="0" y="6" font-size="18" font-style="normal" font-weight="normal" text-anchor="middle">A</text></g><g id="BallB"><ellipse cx="0" cy="0" fill="#fff" stroke="#000" rx="12" ry="12"/><text x="-1" y="7" font-size="18" font-style="normal" font-weight="normal" text-anchor="middle">B</text></g></defs><g id="SplitBefore" transform="translate(5 5)"><use transform="translate(32 45)" xlink:href="#BallT"/><use transform="translate(72 45)" xlink:href="#BallR"/><use transform="translate(112 45)" xlink:href="#BallX"/><use transform="translate(12 85)" xlink:href="#BallA"/><use transform="translate(52 85)" xlink:href="#BallB"/><g stroke="#000"><line x1="32" x2="32" y1="0" y2="33" stroke-dasharray="3 2" marker-end="url(#arrowhead)"/><line x1="44" x2="60" y1="45" y2="45" marker-end="url(#arrowhead)"/><line x1="26.63" x2="17.37" y1="55.73" y2="74.27" marker-end="url(#arrowhead)"/><line x1="66.63" x2="57.37" y1="55.73" y2="74.27" marker-end="url(#arrowhead)"/><line x1="84" x2="100" y1="45" y2="45" marker-end="url(#arrowhead)"/></g></g><path id="BigArrow" fill="#000" stroke="none" d="M -11,-9 L -9,-11 L 1,-1 L 1,1 L -9,11 L -11,9 L -7,5 L -27,5 L -27,2 L -4,2 L -2,0 L -4,-2 L -27,-2 L -27,-5 L -7,-5 z" transform="translate(175 50)"/><g id="SplitAfter" transform="translate(155 5)"><use transform="translate(52 45)" xlink:href="#BallR"/><use transform="translate(32 85)" xlink:href="#BallT"/><use transform="translate(72 85)" xlink:href="#BallX"/><use transform="translate(12 125)" xlink:href="#BallA"/><use transform="translate(52 125)" xlink:href="#BallB"/><g stroke="#000"><line x1="52" x2="52" y1="0" y2="33" stroke-dasharray="3 2" marker-end="url(#arrowhead)"/><line x1="46.63" x2="37.37" y1="55.73" y2="74.27" marker-end="url(#arrowhead)"/><line x1="57.37" x2="66.63" y1="55.73" y2="74.27" marker-end="url(#arrowhead)"/><line x1="26.63" x2="17.37" y1="95.73" y2="114.27" marker-end="url(#arrowhead)"/><line x1="37.37" x2="46.63" y1="95.73" y2="114.27" marker-end="url(#arrowhead)"/></g></g></svg>